<?xml version="1.0" standalone="no"?>
<!DOCTYPE svg PUBLIC "-//W3C//DTD SVG 20010904//EN"
 "http://www.w3.org/TR/2001/REC-SVG-20010904/DTD/svg10.dtd">
<svg version="1.0" xmlns="http://www.w3.org/2000/svg"
 width="500.000000pt" height="500.000000pt" viewBox="0 0 500.000000 500.000000"
 preserveAspectRatio="xMidYMid meet">
<metadata>
Created by potrace 1.14, written by Peter Selinger 2001-2017
</metadata>
<g transform="translate(0.000000,500.000000) scale(0.100000,-0.100000)"
fill="#000000" stroke="none">
<path d="M3325 3658 c-56 -21 -100 -55 -275 -218 -15 -14 -51 -47 -81 -74
-345 -311 -347 -314 -373 -440 -22 -102 -2 -199 56 -284 58 -84 141 -126 251
-125 109 1 119 9 649 496 132 121 180 218 171 342 -14 186 -141 316 -306 314
-34 0 -75 -5 -92 -11z m163 -185 c28 -17 61 -86 62 -127 0 -87 -27 -123 -229
-306 -52 -47 -99 -90 -105 -96 -112 -109 -267 -236 -297 -245 -74 -23 -144 38
-153 133 -9 97 10 124 218 313 55 50 127 115 160 146 34 31 81 73 105 95 25
21 55 49 68 62 51 51 116 60 171 25z"/>
<path d="M1505 3613 c-163 -43 -262 -187 -234 -339 14 -74 44 -123 137 -220
465 -488 490 -511 600 -540 112 -29 267 11 341 87 101 104 114 268 32 381 -15
20 -135 148 -267 284 -131 135 -241 249 -244 253 -3 4 -25 22 -49 39 -84 61
-213 83 -316 55z m180 -182 c22 -10 63 -40 90 -68 142 -142 452 -469 467 -492
39 -58 12 -137 -57 -171 -49 -24 -96 -25 -156 -5 -46 16 -56 26 -477 463 -46
48 -90 101 -97 118 -27 61 1 124 68 154 54 24 112 24 162 1z"/>
<path d="M2918 2425 c-2 -2 -25 -5 -51 -8 -108 -13 -218 -92 -260 -186 -28
-65 -27 -169 3 -234 18 -38 162 -207 275 -323 11 -11 77 -83 147 -160 177
-194 248 -233 404 -221 204 15 337 176 300 362 -14 71 -35 100 -195 274 -113
123 -119 129 -236 257 -144 158 -180 188 -257 213 -37 12 -126 30 -130 26z
m109 -211 c23 -13 48 -33 55 -43 7 -10 57 -65 110 -123 54 -57 107 -115 118
-128 11 -13 63 -70 115 -126 128 -137 138 -150 141 -193 5 -94 -91 -155 -207
-130 -56 12 -67 22 -249 219 -69 74 -127 137 -130 140 -3 3 -52 56 -107 118
-113 125 -127 155 -98 215 40 85 154 107 252 51z"/>
<path d="M2019 2410 c-72 -12 -146 -56 -218 -129 -281 -286 -480 -500 -505
-542 -33 -58 -45 -150 -27 -215 37 -139 198 -243 353 -230 108 10 182 48 273
142 299 307 465 483 488 516 37 56 50 111 44 185 -14 184 -199 307 -408 273z
m168 -194 c59 -31 82 -101 52 -159 -8 -14 -104 -119 -214 -233 -291 -302 -313
-323 -352 -339 -114 -48 -255 30 -237 131 8 46 -24 10 451 501 49 51 105 99
124 107 43 18 133 14 176 -8z"/>
</g>
</svg>
